<?xml version="1.0" standalone="no"?><!DOCTYPE svg PUBLIC "-//W3C//DTD SVG 1.1//EN" "http://www.w3.org/Graphics/SVG/1.1/DTD/svg11.dtd"><svg t="1556532156810" class="icon" style="" viewBox="0 0 1024 1024" version="1.1" xmlns="http://www.w3.org/2000/svg" p-id="6211" xmlns:xlink="http://www.w3.org/1999/xlink" width="200" height="200"><defs><style type="text/css"></style></defs><path d="M849.73893506 178.38063652C744.89309844 174.6895001 590.30481201 97.61506719 533.70739443 67.47079063c-13.62204932-7.2943875-29.88062402-7.2943875-43.50267334-1e-8-56.59741758 30.05639209-211.09782041 107.21870947-316.03154062 110.90984591-20.47701621 0.70307315-37.17501153 18.36779502-37.17501153 38.84481123v417.62566141s1.31826269 132.35358779 149.05158311 233.15675187c0.08788448 0 51.50013398 39.81153691 193.69675108 88.58726103 20.82855234 7.20650302 43.59055693 7.20650302 64.41911015 0 142.19661622-48.77572412 193.60886661-88.58726192 193.60886573-88.58726103 147.82120489-100.80316406 149.0515831-233.15675098 149.0515831-233.15675187V217.22544776c0.08788448-20.47701621-16.61011172-38.05385362-37.08712705-38.84481124zM715.62766396 431.04767714L507.95732744 638.71801367c-6.32766182 6.41554541-14.50089141 9.57937676-22.93777353 9.57937676-8.26111406 0-16.61011172-3.16383047-22.93777266-9.40360781l-114.24944443-114.42521338c-12.65532276-12.65532276-12.65532276-33.22022344 0-45.78766172 12.65532276-12.65532276 33.22022344-12.65532276 45.78766172 0l91.39955537 91.39955537 184.73256387-184.73256387c12.65532276-12.65532276 33.22022344-12.65532276 45.78766172 0 12.74320723 12.65532276 12.74320723 33.13233896 0.08788446 45.69977812z" p-id="6212"></path></svg>