<?xml version="1.0" standalone="no"?><!DOCTYPE svg PUBLIC "-//W3C//DTD SVG 1.1//EN" "http://www.w3.org/Graphics/SVG/1.1/DTD/svg11.dtd"><svg t="1556531968356" class="icon" style="" viewBox="0 0 1024 1024" version="1.1" xmlns="http://www.w3.org/2000/svg" p-id="5487" xmlns:xlink="http://www.w3.org/1999/xlink" width="200" height="200"><defs><style type="text/css"></style></defs><path d="M512 512m-512 0a512 512 0 1 0 1024 0 512 512 0 1 0-1024 0Z" fill="#18AA89" p-id="5488"></path><path d="M249.374782 345.119808c-7.859559 0-13.098581-7.852377-14.40885-18.322213 0-7.852377 5.239022-14.395511 10.47907-17.013996C248.064513 277.065876 270.331896 262.669339 296.529058 262.669339c27.507431 0 48.464545 14.395511 51.084056 47.11426C354.162405 311.092842 358.092184 318.945218 358.092184 326.797595c0 10.469836-6.549291 18.322212-14.408849 18.322213h-1.309243C334.513507 369.98618 316.17693 390.925852 296.529058 390.925852c-19.647872 0-37.985475-20.939671-45.844008-45.806044h-1.310268zM398.108216 482.726733v112.784674c0 9.180088-6.571864 17.048882-15.773499 17.048882h-15.772473V786.981964h-138.014268V612.560289h-15.772473c-7.887263 0-15.773499-7.86982-15.773499-17.048882v-156.062525C197.002004 413.219912 218.032994 390.925852 245.635848 390.925852h21.029964l15.773499 55.080529 11.83038-28.852585-14.459126-18.359151c5.257491 1.311295 10.514982 1.311295 15.772473 1.311295 5.258517 0 10.516008 0 15.773499-1.311295l1.314373 1.311295-13.143728 17.048882 13.143728 28.852585 15.773499-53.770261H349.473347c26.288481 0 48.633844 20.982766 48.633843 48.524056v41.965531z m178.533067 287.081171C576.641283 781.615711 566.128353 792.112224 554.302076 792.112224H449.176882C437.350605 792.112224 426.837675 781.615711 426.837675 769.807904V574.320353C426.837675 562.512545 437.350605 552.016032 449.176882 552.016032h105.125194C566.128353 552.016032 576.641283 562.512545 576.641283 574.320353v195.487551z m243.580665-346.385956c13.134493 17.056064 6.566733 30.176192-14.448866 30.176192h-36.778838v316.208738c0 11.808834-10.5078 22.305347-22.328945 22.305346H641.583198c-11.821146 0-22.328946-10.496513-22.328945-22.305346v-316.208738h-36.778838c-21.015599 0-27.583359-13.120128-14.448866-30.176192l101.141034-123.334541c14.448866-17.05709 36.777812-17.05709 49.913331 0l101.141034 123.334541z" fill="#FFFFFF" p-id="5489"></path></svg>