<?xml version="1.0" standalone="no"?><!DOCTYPE svg PUBLIC "-//W3C//DTD SVG 1.1//EN" "http://www.w3.org/Graphics/SVG/1.1/DTD/svg11.dtd"><svg t="1556531036583" class="icon" style="" viewBox="0 0 1560 1024" version="1.1" xmlns="http://www.w3.org/2000/svg" p-id="2576" xmlns:xlink="http://www.w3.org/1999/xlink" width="304.6875" height="200"><defs><style type="text/css"></style></defs><path d="M780.149589 0A952.390408 952.390408 0 0 0 52.204595 363.800771a236.80966 236.80966 0 0 0 0 296.398458 952.390408 952.390408 0 0 0 727.944994 363.800771 952.390408 952.390408 0 0 0 727.944994-363.800771 236.80966 236.80966 0 0 0 0-296.398458A946.723461 946.723461 0 0 0 780.149589 0z m0 763.492202a229.683045 229.683045 0 0 1-201.176589-247.027335 229.683045 229.683045 0 0 1 201.176589-247.027336 229.683045 229.683045 0 0 1 200.919001 247.027336 229.683045 229.683045 0 0 1-200.919001 247.027335z" fill="#B6B6B6" p-id="2577"></path></svg>