<?xml version="1.0" standalone="no"?><!DOCTYPE svg PUBLIC "-//W3C//DTD SVG 1.1//EN" "http://www.w3.org/Graphics/SVG/1.1/DTD/svg11.dtd"><svg t="1556531167684" class="icon" style="" viewBox="0 0 1024 1024" version="1.1" xmlns="http://www.w3.org/2000/svg" p-id="4744" xmlns:xlink="http://www.w3.org/1999/xlink" width="200" height="200"><defs><style type="text/css"></style></defs><path d="M951.655322 839.681064c-6.878664 41.274032-49.001017 110.383016-121.962749 110.86704-21.242813 0.140193-82.616626 4.66116-164.210969 0.132006-0.354064-0.019443-0.51984-0.132006-0.886183-0.132006-36.552497 0-75.389014-29.043477-104.60236-57.300031-10.832719 1.362021-21.795399 2.267647-32.978089 2.267647-19.190061 0-37.911448-2.091638-55.995315-6.014994-29.084409 29.208229-69.269643 60.670801-108.49297 60.992119-80.845283-0.044002-145.491629-0.052189-165.704996 0.055259-85.759199 0.451278-125.192304-71.199599-131.206274-115.100458-5.991458-43.738154 0.50449-74.073042 21.141506-132.545782 20.637016-58.471716 10.31902-182.294836 82.548064-357.709985S344.607572 63.518662 527.014972 70.032006c30.565133 1.092891 61.358463 9.094122 91.584881 21.236674 39.644929-18.766412 92.691075-11.92868 130.753973 20.645203 29.219485 25.006534 41.896202 58.882062 38.181601 90.038666 34.323737-3.367701 71.52501 8.323573 100.514251 35.688827 44.317345 41.835827 54.038754 104.938004 26.148543 149.489686 7.987928 72.265884 6.358825 254.975159 25.560142 315.77285C960.394357 768.254292 958.533986 798.407032 951.655322 839.681064zM527.014972 840.48436c121.574916 0 220.129536-98.55462 220.129536-220.129536 0-52.093449-18.147312-99.903338-48.409546-137.580448L355.294982 482.774375c-30.262234 37.678134-48.409546 85.487-48.409546 137.580448C306.885436 741.92974 405.440056 840.48436 527.014972 840.48436zM710.808952 141.812843c-32.730449-16.749476-71.374584-12.161994-86.309738 10.244318s-2.399653 56.669674 32.221866 70.897723c20.056801 8.243755 60.552098 12.173251 75.488275-10.233062C747.144508 190.31551 743.5394 158.562319 710.808952 141.812843zM884.724956 290.160519c-26.564006-41.915645-96.586802-61.031005-128.046305-37.116339-31.456433 23.914666-29.384237 72.587202 4.631484 108.71912 34.015721 36.128849 87.35044 40.481993 115.532293 10.956539C897.242038 351.34809 903.262148 319.410704 884.724956 290.160519zM884.724956 702.902888c-16.666588-54.000891-17.901719-200.10548-24.208355-274.245038-39.818891 12.973476-87.908142 2.727111-123.57548-30.944779-34.910091-32.956599-47.991014-79.051427-38.561247-118.971625-31.249725 2.041496-64.698534-7.93574-91.026156-30.462802-37.290301-31.915897-48.211025-78.269621-31.371498-114.901936-16.652262-5.148253-33.104979-8.312316-48.967248-8.312316-138.978285 0-235.43922 80.583317-302.677601 247.645217s-63.336514 274.507004-82.548064 330.194304-25.736151 90.390683-21.149693 115.614158c4.586458 25.224498 21.162995 77.599356 103.697757 76.998675 30.742165-0.224104 78.212316 1.166569 110.064768 0 25.812899-0.946558 55.717999-2.220574 85.625146-22.659069-98.818633-43.830251-168.173211-146.540518-168.173211-266.26018 0-67.601654 22.282492-129.636522 59.3272-178.854481l431.667394 0c37.044708 49.217958 59.3272 111.252827 59.3272 178.854481 0 120.983445-70.88749 224.455051-171.373089 267.490194 17.510816 16.387225 61.308321 21.430078 61.308321 21.430078s124.383892 1.584078 137.580448 0c65.527412-7.864108 72.110341-86.335321 73.559343-100.526531C904.700917 780.796956 903.936507 765.142417 884.724956 702.902888z" p-id="4745"></path></svg>